<?xml version="1.0" encoding="utf-8"?>
<!-- Generated by IcoMoon.io -->
<svg version="1.1" xmlns="http://www.w3.org/2000/svg" xmlns:xlink="http://www.w3.org/1999/xlink">
<defs>
<symbol id="nothing-here-space" viewBox="0 0 43 32" x="0" y="0">
<path d="M24.367 4.644c-0.017 0.050-0.033 0.422-0.033 0.833 0 0.628 0.017 0.756 0.089 0.783 0.156 0.061 0.217-0.083 0.217-0.517 0-0.233 0.022-0.389 0.044-0.344 0.45 0.761 0.611 0.989 0.706 0.989 0.144 0 0.2-0.122 0.272-0.594 0.089-0.567 0.078-0.989-0.022-1.072-0.139-0.117-0.178-0.017-0.217 0.556-0.022 0.306-0.061 0.567-0.083 0.583-0.028 0.011-0.2-0.272-0.389-0.639-0.25-0.483-0.372-0.667-0.45-0.667-0.056 0-0.117 0.039-0.133 0.089z"></path>
<path d="M29.839 4.739c-0.033 0.033-0.061 0.167-0.061 0.294v0.228l-0.261 0.039c-0.139 0.017-0.267 0.028-0.278 0.017-0.006-0.011-0.039-0.139-0.067-0.283-0.056-0.306-0.078-0.339-0.2-0.289-0.083 0.028-0.089 0.111-0.056 0.717 0.044 0.728 0.089 0.928 0.217 0.928 0.15 0 0.206-0.144 0.167-0.467l-0.039-0.311h0.561l0.050 0.289c0.039 0.244 0.067 0.3 0.172 0.311 0.067 0.011 0.133-0.017 0.156-0.061 0.028-0.072-0.022-0.567-0.122-1.217-0.033-0.217-0.133-0.3-0.239-0.194z"></path>
<path d="M33.594 4.822c-0.15 0.161-0.206 0.389-0.206 0.822 0 0.489 0.089 0.7 0.339 0.8 0.206 0.089 0.383 0.017 0.556-0.222 0.239-0.328 0.156-0.611-0.172-0.611-0.239 0-0.333 0.056-0.333 0.194 0 0.1 0.033 0.133 0.144 0.15 0.128 0.017 0.133 0.022 0.056 0.128s-0.083 0.106-0.183 0.011c-0.106-0.1-0.122-0.444-0.050-0.85 0.044-0.222 0.117-0.239 0.294-0.067 0.106 0.1 0.144 0.111 0.178 0.050 0.072-0.111 0.011-0.272-0.15-0.394-0.172-0.139-0.356-0.144-0.472-0.011z"></path>
<path d="M26.15 4.878c-0.222 0.244-0.3 1-0.133 1.322 0.194 0.378 0.644 0.35 0.961-0.061 0.222-0.289 0.256-0.778 0.078-1.028-0.217-0.306-0.722-0.433-0.906-0.233zM26.711 5.239c0.2 0.183 0.172 0.5-0.078 0.75-0.183 0.183-0.2 0.189-0.289 0.1-0.072-0.072-0.094-0.183-0.089-0.483 0.011-0.55 0.139-0.65 0.456-0.367z"></path>
<path d="M27.461 4.811c-0.039 0.017-0.072 0.078-0.072 0.133 0 0.106 0.106 0.167 0.272 0.167 0.089 0 0.106 0.072 0.128 0.539 0.033 0.578 0.072 0.739 0.178 0.739 0.139 0 0.189-0.117 0.139-0.322-0.028-0.111-0.050-0.372-0.050-0.578v-0.367l0.211-0.050c0.15-0.033 0.206-0.078 0.206-0.156 0-0.1-0.044-0.111-0.472-0.122-0.261-0.006-0.506 0.006-0.539 0.017z"></path>
<path d="M30.672 4.828c-0.061 0.039-0.067 0.161-0.022 0.694 0.056 0.678 0.128 0.85 0.311 0.778 0.106-0.039 0.111-0.072 0.044-0.817-0.061-0.628-0.133-0.778-0.333-0.656z"></path>
<path d="M32.744 4.878c-0.033 0.022-0.078 0.2-0.1 0.4-0.056 0.533-0.106 0.572-0.283 0.217-0.217-0.428-0.356-0.606-0.467-0.606-0.172 0-0.217 0.117-0.256 0.706-0.033 0.506-0.028 0.578 0.056 0.606 0.133 0.056 0.194-0.039 0.239-0.344l0.039-0.267 0.194 0.317c0.289 0.478 0.55 0.5 0.711 0.061 0.111-0.311 0.122-1.1 0.011-1.117-0.044-0.011-0.111 0-0.144 0.028z"></path>
<path d="M34.139 6.644c-1.272 0.094-3.828 0.183-8.611 0.294-1.444 0.033-1.444 0.033-1.461 0.156-0.033 0.233 0.161 0.256 1.933 0.217 4.2-0.083 6.578-0.15 7.111-0.2 0.322-0.028 0.778-0.050 1.011-0.056 0.378 0 0.439-0.017 0.489-0.117 0.050-0.089 0.044-0.139-0.033-0.222-0.050-0.056-0.122-0.1-0.156-0.094s-0.161 0.017-0.283 0.022z"></path>
<path d="M29.317 7.944c-0.15 0.117-0.15 0.122-0.15 0.828 0 0.878 0.022 0.911 0.55 0.861 0.361-0.039 0.467-0.122 0.339-0.272-0.033-0.039-0.167-0.083-0.294-0.094-0.217-0.017-0.233-0.028-0.25-0.194-0.017-0.172-0.017-0.178 0.25-0.194 0.206-0.011 0.272-0.039 0.283-0.122 0.028-0.144-0.050-0.2-0.3-0.222-0.206-0.022-0.217-0.028-0.217-0.206s0.011-0.189 0.172-0.172c0.183 0.017 0.322-0.089 0.256-0.194-0.022-0.039-0.139-0.083-0.261-0.1-0.178-0.033-0.256-0.011-0.378 0.083z"></path>
<path d="M34.617 8.089c-0.161 0.133-0.172 0.167-0.167 0.483 0.006 0.761 0.111 1.078 0.317 1 0.061-0.028 0.072-0.1 0.056-0.306-0.017-0.144-0.022-0.267-0.011-0.267s0.122 0.15 0.244 0.339c0.128 0.183 0.261 0.322 0.294 0.311 0.133-0.044 0.1-0.222-0.1-0.522s-0.2-0.306-0.111-0.494c0.094-0.2 0.067-0.428-0.072-0.594-0.117-0.133-0.25-0.117-0.45 0.050z"></path>
<path d="M26.767 8.128c-0.278 0.228-0.261 0.372 0.089 0.783 0.172 0.2 0.311 0.383 0.311 0.411s-0.133 0.072-0.289 0.1c-0.261 0.044-0.294 0.067-0.294 0.189 0 0.128 0.022 0.139 0.278 0.156 0.2 0.011 0.328-0.017 0.461-0.1 0.15-0.094 0.178-0.139 0.178-0.328 0-0.183-0.050-0.278-0.289-0.567-0.267-0.322-0.278-0.35-0.183-0.417 0.056-0.044 0.139-0.078 0.178-0.078 0.1 0 0.089-0.206-0.017-0.244-0.156-0.061-0.267-0.033-0.422 0.094z"></path>
<path d="M28.006 8.094c-0.128 0.089-0.133 0.1-0.1 0.75 0.017 0.406 0.056 0.694 0.1 0.744 0.050 0.061 0.156 0.078 0.406 0.067 0.322-0.017 0.339-0.022 0.339-0.156 0-0.122-0.028-0.139-0.228-0.156-0.183-0.011-0.239-0.044-0.267-0.139-0.056-0.222-0.033-0.256 0.172-0.272 0.361-0.028 0.311-0.317-0.050-0.322-0.128 0-0.156-0.022-0.156-0.139 0-0.122 0.022-0.139 0.189-0.139 0.206 0 0.344-0.117 0.289-0.25-0.044-0.117-0.522-0.111-0.694 0.011z"></path>
<path d="M35.789 8.128c-0.106 0.111-0.122 0.194-0.122 0.55 0 0.8 0.111 0.972 0.583 0.906 0.317-0.050 0.439-0.156 0.356-0.311-0.044-0.094-0.106-0.111-0.289-0.094-0.206 0.017-0.233 0-0.25-0.111s0-0.122 0.156-0.111c0.122 0.011 0.2-0.017 0.244-0.083 0.078-0.128-0.039-0.217-0.256-0.189-0.122 0.017-0.15-0.006-0.172-0.122-0.039-0.194-0.006-0.228 0.206-0.228 0.206 0 0.339-0.117 0.289-0.25-0.022-0.061-0.111-0.083-0.328-0.083-0.239 0-0.322 0.028-0.417 0.128z"></path>
<path d="M33.361 8.256c-0.106 0.256-0.106 0.744-0.006 0.994 0.1 0.233 0.25 0.317 0.55 0.294 0.206-0.017 0.233-0.033 0.233-0.156s-0.028-0.139-0.222-0.156c-0.228-0.022-0.306-0.078-0.306-0.244 0-0.067 0.056-0.1 0.211-0.111 0.161-0.011 0.206-0.039 0.206-0.128s-0.044-0.117-0.206-0.128c-0.183-0.017-0.211-0.039-0.211-0.156 0-0.111 0.028-0.133 0.156-0.133 0.2 0 0.311-0.078 0.272-0.189-0.028-0.067-0.111-0.089-0.317-0.089-0.267 0-0.278 0.006-0.361 0.2z"></path>
<path d="M31.789 8.233c-0.044 0.044-0.067 0.272-0.067 0.633 0 0.472 0.017 0.572 0.089 0.6 0.144 0.056 0.261-0.078 0.222-0.256-0.028-0.15-0.022-0.156 0.217-0.156s0.25 0.006 0.25 0.156c0 0.233 0.133 0.389 0.261 0.311 0.083-0.050 0.094-0.122 0.083-0.433-0.039-0.694-0.083-0.894-0.206-0.894-0.094 0-0.117 0.044-0.128 0.256-0.017 0.272-0.078 0.328-0.383 0.328-0.111 0-0.128-0.028-0.128-0.244 0-0.267-0.1-0.411-0.211-0.3z"></path>
<path d="M22.333 8.383c-0.261 0.028-0.306 0.050-0.322 0.161-0.022 0.133 0.028 0.161 0.322 0.194l0.194 0.017 0.017 0.561c0.011 0.456 0.033 0.567 0.106 0.594 0.183 0.072 0.239-0.067 0.239-0.639v-0.544l0.228-0.017c0.272-0.017 0.394-0.15 0.278-0.289-0.078-0.094-0.428-0.106-1.061-0.039z"></path>
<path d="M23.9 8.4c-0.261 0.128-0.3 0.811-0.067 1.261 0.306 0.6 0.844 0.489 0.922-0.189 0.044-0.378-0.061-0.733-0.283-0.956-0.189-0.189-0.35-0.222-0.572-0.117z"></path>
<path d="M14.222 8.706c-1.2 0.117-2.489 0.578-3.528 1.267-0.522 0.344-0.839 0.667-1.233 1.25-0.744 1.106-1.067 2.156-1.078 3.511-0.006 0.822 0.072 1.267 0.344 1.872 0.689 1.522 2.139 2.7 3.717 3.011l0.333 0.067 0.306 0.578c0.172 0.322 0.3 0.6 0.278 0.617-0.017 0.017-0.222 0.039-0.461 0.044-0.233 0.006-0.444 0.017-0.467 0.017-0.067 0.006-0.056 0.439 0.011 0.567 0.128 0.233 0.922 0.489 1.517 0.494 0.144 0 0.261 0.022 0.261 0.044 0 0.089 1.211 1.35 1.583 1.65 1.35 1.078 3.511 2.117 5.322 2.556 2.228 0.544 4.528 0.344 6.494-0.567l0.422-0.194 0.167 0.183c0.344 0.4 0.456 0.539 0.456 0.594 0 0.144 0.167 0.189 0.428 0.122 0.356-0.083 0.461-0.189 0.461-0.444 0-0.233-0.156-1.033-0.228-1.172-0.033-0.067 0.072-0.183 0.45-0.5 0.278-0.228 0.578-0.517 0.678-0.644 0.094-0.133 0.217-0.239 0.261-0.239 0.050 0 0.411 0.050 0.806 0.111 0.994 0.156 1.117 0.15 1.189-0.044 0.122-0.317 0.122-0.394-0.006-0.739-0.161-0.422-0.6-1.306-0.806-1.628-0.172-0.261-0.894-1.244-1.272-1.722l-0.256-0.333 0.178-0.344c0.133-0.256 0.367-0.528 0.956-1.1 0.556-0.544 0.872-0.906 1.111-1.272 0.839-1.272 1.289-2.656 0.989-3.017-0.078-0.094-0.406-0.1-0.483-0.011-0.028 0.039-0.094 0.233-0.144 0.433-0.139 0.539-0.411 1.078-0.878 1.694-0.494 0.661-0.789 0.939-1.478 1.411-0.556 0.383-0.906 0.733-1.083 1.094l-0.111 0.233-0.394-0.267c-0.644-0.428-1.156-0.656-1.883-0.833-0.728-0.183-2.517-0.45-3.65-0.556-1.628-0.15-2.25-0.228-2.917-0.372-0.644-0.139-0.7-0.161-0.667-0.267 0.333-1.178 0.328-1.128 0.328-2.139 0.006-0.872-0.006-1.017-0.122-1.389-0.444-1.4-1.378-2.511-2.667-3.161-0.739-0.372-2.144-0.578-3.233-0.467zM16.344 9.133c1.211 0.278 2.183 0.95 2.867 1.972 0.633 0.944 0.878 1.789 0.833 2.889-0.028 0.639-0.239 1.728-0.333 1.728-0.022 0-0.044-0.033-0.044-0.072 0-0.117-0.472-1.111-0.689-1.456-0.117-0.183-0.3-0.444-0.411-0.578-0.189-0.233-0.2-0.261-0.2-0.706-0.006-0.55-0.089-0.694-0.35-0.6-0.117 0.039-0.206 0.15-0.35 0.45l-0.194 0.4-0.367 0.006c-0.878 0-2.594 0.328-3.244 0.617-0.383 0.167-0.894 0.478-1.117 0.672l-0.194 0.172-0.178-0.178c-0.356-0.339-0.467-0.222-0.533 0.567-0.111 1.306 0.106 2.828 0.572 3.917l0.194 0.461-0.178-0.033c-1.544-0.322-3.050-1.7-3.583-3.278-0.139-0.417-0.144-0.511-0.15-1.417 0-0.839 0.017-1.033 0.128-1.433 0.228-0.828 0.65-1.706 1.122-2.333 0.672-0.883 2.439-1.7 4.167-1.922 0.472-0.061 1.65 0.022 2.233 0.156zM18.111 13.028v0.417l0.311 0.406c0.178 0.228 0.489 0.767 0.728 1.256l0.422 0.861-0.294 0.272c-1.25 1.15-2.644 2.083-3.778 2.528-0.639 0.256-2.211 0.678-2.506 0.678-0.089 0-0.422-0.739-0.594-1.306-0.239-0.778-0.306-1.289-0.311-2.456-0.006-0.933 0.022-1.189 0.122-1.039 0.022 0.033 0.094 0.128 0.161 0.211l0.128 0.156 0.311-0.283c0.422-0.383 1.261-0.789 2.022-0.972 0.689-0.167 1.878-0.322 2.356-0.311 0.472 0.011 0.467 0.011 0.511-0.128 0.072-0.244 0.311-0.706 0.361-0.706 0.028 0 0.050 0.189 0.050 0.417zM33.339 14.261c-0.061 0.211-0.228 0.617-0.372 0.906-0.433 0.894-0.811 1.4-1.694 2.278-0.583 0.572-0.861 0.889-0.967 1.106l-0.15 0.3-0.256-0.244c-0.144-0.133-0.267-0.25-0.283-0.256-0.011-0.006 0.011-0.094 0.056-0.189 0.122-0.3 0.706-0.872 1.311-1.283 0.628-0.428 0.967-0.772 1.456-1.489 0.372-0.539 0.611-1.006 0.756-1.444 0.056-0.167 0.128-0.339 0.161-0.383 0.111-0.144 0.106 0.294-0.017 0.7zM20.367 16.3c0.789 0.178 1.194 0.233 2.633 0.367 2.361 0.217 4.239 0.561 4.983 0.911 0.494 0.233 0.961 0.55 1.556 1.044 0.55 0.456 0.778 0.717 1.567 1.794 0.622 0.85 0.967 1.433 1.294 2.222 0.178 0.422 0.183 0.456 0.1 0.594-0.044 0.089-0.117 0.144-0.167 0.133-0.044-0.017-0.456-0.067-0.917-0.117-1.133-0.122-1.967-0.25-2.122-0.322-0.089-0.039-0.15-0.039-0.189 0-0.094 0.094 0.2 0.239 0.689 0.328 0.25 0.050 0.489 0.1 0.533 0.111 0.111 0.033-0.133 0.278-0.783 0.778-1.394 1.072-2.7 1.678-4.239 1.972-0.878 0.167-2.4 0.183-3.356 0.033-1.922-0.306-4.561-1.494-6.022-2.717-0.9-0.756-1.789-1.85-2.5-3.083l-0.372-0.656 0.233-0.044c1.567-0.306 2.144-0.483 3.033-0.933 1.017-0.517 2.072-1.272 3.011-2.156 0.228-0.211 0.422-0.389 0.422-0.394 0.006 0 0.278 0.061 0.611 0.133zM13.778 21.439c0.122 0.183 0.222 0.344 0.222 0.356 0 0.039-0.7-0.072-0.956-0.161-0.25-0.083-0.433-0.267-0.433-0.439 0-0.067 0.083-0.083 0.472-0.083h0.467l0.228 0.328zM29.233 25.228c0.15 0.567 0.133 0.678-0.094 0.789l-0.189 0.089-0.322-0.333c-0.178-0.189-0.322-0.367-0.322-0.394 0-0.072 0.7-0.539 0.778-0.522 0.033 0.006 0.1 0.172 0.15 0.372z"></path>
<path d="M15.394 9.472c0.017 0.078 0.161 0.139 0.622 0.256 0.606 0.161 1.328 0.45 1.717 0.7 0.311 0.194 0.506 0.15 0.383-0.089-0.15-0.272-1.661-0.878-2.35-0.933-0.356-0.033-0.389-0.022-0.372 0.067z"></path>
<path d="M17.822 19.472c-0.122 0.067-0.728 0.233-1.389 0.383-0.139 0.033-0.156 0.061-0.156 0.244 0 0.444 0.461 0.694 1.289 0.7 0.489 0.006 0.556-0.006 0.667-0.117 0.167-0.172 0.1-0.206-0.239-0.128-0.356 0.089-0.933 0.039-1.206-0.094-0.206-0.106-0.35-0.394-0.217-0.428 0.039-0.011 0.289-0.072 0.561-0.139 0.528-0.122 1.011-0.328 0.994-0.422-0.017-0.089-0.144-0.089-0.306 0z"></path>
<path d="M14.010 15.995c0 0.123-0.1 0.222-0.222 0.222s-0.222-0.099-0.222-0.222c0-0.123 0.1-0.222 0.222-0.222s0.222 0.1 0.222 0.222z"></path>
<path d="M16.677 15.162c0 0.123-0.099 0.222-0.222 0.222s-0.222-0.1-0.222-0.222c0-0.123 0.099-0.222 0.222-0.222s0.222 0.1 0.222 0.222z"></path>
</symbol>
</defs>
</svg>
